<?xml version='1.0' encoding='iso-8859-1'?>
<!DOCTYPE svg PUBLIC '-//W3C//DTD SVG 1.1//EN' 'http://www.w3.org/Graphics/SVG/1.1/DTD/svg11.dtd'>
<svg version="1.1" xmlns="http://www.w3.org/2000/svg" viewBox="0 0 459 459" xmlns:xlink="http://www.w3.org/1999/xlink" enable-background="new 0 0 459 459">
  <path d="m356.766,147.498l-12.217-114.188c-2.033-18.99-17.967-33.31-37.065-33.31h-155.968c-19.098,0-35.032,14.32-37.064,33.31l-12.217,114.188c-1.124,10.501 2.281,21.028 9.34,28.883 7.059,7.854 17.164,12.359 27.724,12.359h32.296v234.877c0,2.919 1.694,5.573 4.342,6.803l60.058,27.884c1.005,0.466 2.083,0.696 3.157,0.696 1.488,0 2.967-0.442 4.235-1.31l40.754-27.884c2.043-1.398 3.265-3.714 3.265-6.19v-234.877h32.295c10.561,0 20.666-4.505 27.725-12.359 7.059-7.855 10.463-18.382 9.34-28.882zm-122.266-11.002c0,2.757-2.243,5-5,5s-5-2.243-5-5 2.243-5 5-5 5,2.243 5,5zm-47.906,52.243h45.058v251.01l-45.058-20.92v-230.09zm60.058,152.29h25.754v30.043h-25.754v-30.043zm-0-15v-66.507h25.754v66.507h-25.754zm0-81.507v-23.609h25.754v23.609h-25.754zm0,192.759v-51.208h25.754v33.587l-25.754,17.621zm25.754-231.368h-25.754v-17.174h25.754v17.174zm63.864-39.559c-4.281,4.763-10.165,7.386-16.568,7.386h-180.404c-6.403,0-12.287-2.623-16.567-7.386-4.281-4.763-6.263-10.893-5.582-17.26l12.217-114.188c1.215-11.348 10.737-19.906 22.15-19.906h39.854v27.043l-18.856,18.855c-2.49-1.115-5.24-1.749-8.14-1.749-11.028,0-20,8.972-20,20s8.972,20 20,20 20-8.972 20-20c0-2.632-0.524-5.141-1.452-7.445l21.251-21.251c1.407-1.407 2.197-3.314 2.197-5.303v-30.15h15.63v102.969c-7.32,2.974-12.5,10.152-12.5,18.527 0,11.028 8.972,20 20,20s20-8.972 20-20c0-8.375-5.18-15.553-12.5-18.527v-102.969h15.63v56.5c0,1.989 0.79,3.897 2.197,5.303l21.25,21.25c-0.928,2.303-1.452,4.812-1.452,7.443 0,11.028 8.972,20 20,20s20-8.972 20-20-8.972-20-20-20c-2.901,0-5.652,0.635-8.142,1.75l-18.853-18.852v-53.394h39.854c11.413,0 20.935,8.558 22.149,19.906l12.217,114.188c0.682,6.367-1.3,12.497-5.58,17.26zm-166.896-87.205c0,2.757-2.243,5-5,5s-5-2.243-5-5 2.243-5 5-5 5,2.244 5,5zm125.252,21.348c2.757,0 5,2.243 5,5s-2.243,5-5,5-5-2.243-5-5 2.243-5 5-5z"/>
</svg>
